<svg width="16" height="17" viewBox="0 0 16 17" fill="none" xmlns="http://www.w3.org/2000/svg">
<path d="M8 7.08984L14.4336 0.65625C14.75 0.304688 15.2773 0.304688 15.5938 0.65625C15.9453 0.972656 15.9453 1.5 15.5938 1.81641L9.16016 8.25L15.5938 14.6836C15.9453 15.0352 15.9453 15.5625 15.5938 15.8789C15.2773 16.2305 14.75 16.2305 14.4336 15.8789L8 9.44531L1.53125 15.8789C1.21484 16.2305 0.6875 16.2305 0.371094 15.8789C0.0195312 15.5625 0.0195312 15.0352 0.371094 14.6836L6.80469 8.25L0.371094 1.81641C0.0195312 1.5 0.0195312 0.972656 0.371094 0.65625C0.6875 0.304688 1.21484 0.304688 1.53125 0.65625L8 7.08984Z" fill="white"/>
</svg>
