<svg width="20" height="23" viewBox="0 0 20 23" fill="none" xmlns="http://www.w3.org/2000/svg">
<path d="M11.375 2.125V2.89844C14.4688 3.41406 16.875 6.12109 16.875 9.34375V10.8047C16.875 12.7383 17.5195 14.6289 18.7227 16.1758L19.3672 16.9492C19.625 17.293 19.668 17.7227 19.4961 18.0664C19.3242 18.4102 18.9805 18.625 18.5938 18.625H1.40625C0.976562 18.625 0.632812 18.4102 0.460938 18.0664C0.289062 17.7227 0.332031 17.293 0.589844 16.9492L1.23438 16.1758C2.4375 14.6289 3.125 12.7383 3.125 10.8047V9.34375C3.125 6.12109 5.48828 3.41406 8.625 2.89844V2.125C8.625 1.39453 9.22656 0.75 10 0.75C10.7305 0.75 11.375 1.39453 11.375 2.125ZM9.65625 4.875C7.16406 4.875 5.1875 6.89453 5.1875 9.34375V10.8047C5.1875 12.8672 4.58594 14.8438 3.46875 16.5625H16.4883C15.3711 14.8438 14.8125 12.8672 14.8125 10.8047V9.34375C14.8125 6.89453 12.793 4.875 10.3438 4.875H9.65625ZM12.75 20C12.75 20.7305 12.4492 21.4609 11.9336 21.9766C11.418 22.4922 10.6875 22.75 10 22.75C9.26953 22.75 8.53906 22.4922 8.02344 21.9766C7.50781 21.4609 7.25 20.7305 7.25 20H12.75Z" fill="white"/>
</svg>
