<svg width="42" height="36" viewBox="0 0 42 36" fill="none" xmlns="http://www.w3.org/2000/svg">
<path d="M28.9688 11.1562L26.9688 24.125C26.9375 24.4375 26.75 24.7188 26.4688 24.875C26.3125 24.9375 26.1562 25 25.9688 25C25.8438 25 25.7188 24.9688 25.5938 24.9062L21.7812 23.3125L20.1875 25.6875C20.0625 25.9062 19.8438 26 19.625 26C19.2812 26 19 25.7188 19 25.375V22.375C19 22.125 19.0625 21.9062 19.1875 21.75L26 13L16.8125 21.2812L13.5938 19.9375C13.25 19.7812 13 19.4688 13 19.0625C12.9688 18.625 13.1562 18.3125 13.5 18.125L27.5 10.1562C27.8125 9.96875 28.25 9.96875 28.5625 10.1875C28.875 10.4062 29.0312 10.7812 28.9688 11.1562Z" fill="#95E6CB"/>
</svg>
