<svg
  width="23"
  height="23"
  viewBox="0 0 23 23"
  fill="none"
  xmlns="http://www.w3.org/2000/svg"
>
  <path
    d="M21.6562 20.9883L15.8984 15.2305C17.1445 13.7266 17.832 11.793 17.832 9.6875C17.832 4.78906 13.793 0.75 8.89453 0.75C3.95312 0.75 0 4.78906 0 9.6875C0 14.6289 3.99609 18.625 8.89453 18.625C10.957 18.625 12.8906 17.9375 14.4375 16.6914L20.1953 22.4492C20.4102 22.6641 20.668 22.75 20.9688 22.75C21.2266 22.75 21.4844 22.6641 21.6562 22.4492C22.0859 22.0625 22.0859 21.418 21.6562 20.9883ZM2.0625 9.6875C2.0625 5.90625 5.11328 2.8125 8.9375 2.8125C12.7188 2.8125 15.8125 5.90625 15.8125 9.6875C15.8125 13.5117 12.7188 16.5625 8.9375 16.5625C5.11328 16.5625 2.0625 13.5117 2.0625 9.6875Z"
    fill="white"
  />
</svg>
