<svg width="28" height="23" viewBox="0 0 28 23" fill="none" xmlns="http://www.w3.org/2000/svg">
<path d="M25 6.25H19.5V7.625H25C25.7305 7.625 26.375 8.26953 26.375 9V17.25C26.375 18.0234 25.7305 18.625 25 18.625H22.25V20.7734L18.4688 18.625H14C13.2266 18.625 12.625 18.0234 12.625 17.25V15.875H11.25V17.25C11.25 18.7969 12.4531 20 13.957 20H18.125L22.7656 22.6641C22.8945 22.75 22.9805 22.75 23.1094 22.75C23.3672 22.75 23.625 22.5781 23.625 22.2344V20H25C26.5039 20 27.75 18.7969 27.75 17.293V9C27.75 7.49609 26.5039 6.25 25 6.25ZM18.125 11.75V3.5C18.125 1.99609 16.8789 0.75 15.375 0.75H3C1.45312 0.75 0.25 1.99609 0.25 3.5V11.75C0.25 13.2969 1.45312 14.5 3 14.5L4.375 14.543V16.7344C4.375 17.0781 4.58984 17.25 4.89062 17.25C4.97656 17.25 5.0625 17.25 5.19141 17.1641L9.875 14.5H15.375C16.8789 14.5 18.125 13.2969 18.125 11.75ZM9.48828 13.125L5.75 15.2734V13.125H3C2.22656 13.125 1.625 12.5234 1.625 11.75V3.5C1.625 2.76953 2.22656 2.125 3 2.125H15.375C16.1055 2.125 16.75 2.76953 16.75 3.5V11.75C16.75 12.5234 16.1055 13.125 15.375 13.125H9.48828Z" fill="white"/>
</svg>
