<svg width="14" height="15" viewBox="0 0 14 15" fill="none" xmlns="http://www.w3.org/2000/svg">
<path d="M8.36719 9.66406L4.42969 11.168C3.88281 11.3867 3.36328 10.8398 3.58203 10.3203L5.08594 6.38281C5.19531 6.13672 5.35938 5.97266 5.60547 5.86328L9.54297 4.35938C10.0898 4.14062 10.6094 4.66016 10.3906 5.20703L8.88672 9.14453C8.77734 9.39062 8.61328 9.55469 8.36719 9.66406ZM6.97266 6.875C6.50781 6.875 6.09766 7.28516 6.09766 7.75C6.09766 8.24219 6.50781 8.625 6.97266 8.625C7.46484 8.625 7.875 8.24219 7.875 7.75C7.875 7.28516 7.46484 6.875 6.97266 6.875ZM14 7.75C14 11.6328 10.8555 14.75 7 14.75C3.11719 14.75 0 11.6328 0 7.75C0 3.89453 3.11719 0.75 7 0.75C10.8555 0.75 14 3.89453 14 7.75ZM7 2.0625C3.85547 2.0625 1.3125 4.63281 1.3125 7.75C1.3125 10.8945 3.85547 13.4375 7 13.4375C10.1172 13.4375 12.6875 10.8945 12.6875 7.75C12.6875 4.63281 10.1172 2.0625 7 2.0625Z" fill="white" fill-opacity="0.8"/>
</svg>
