<svg width="28" height="23" viewBox="0 0 28 23" fill="none" xmlns="http://www.w3.org/2000/svg">
<path d="M12.0234 13.8125H7.68359C3.55859 13.8125 0.25 17.1641 0.25 21.2891C0.25 22.1055 0.894531 22.75 1.71094 22.75H17.9961C18.8125 22.75 19.5 22.1055 19.5 21.2891C19.5 17.1641 16.1484 13.8125 12.0234 13.8125ZM17.9961 21.375H1.71094C1.66797 21.375 1.625 21.332 1.625 21.2891C1.625 17.9375 4.33203 15.1875 7.68359 15.1875H12.0234C15.375 15.1875 18.125 17.9375 18.125 21.2891C18.125 21.332 18.0391 21.375 17.9961 21.375ZM9.875 11.75C12.8828 11.75 15.375 9.30078 15.375 6.25C15.375 3.24219 12.8828 0.75 9.875 0.75C6.82422 0.75 4.375 3.24219 4.375 6.25C4.375 9.30078 6.82422 11.75 9.875 11.75ZM9.875 2.125C12.1094 2.125 14 4.01562 14 6.25C14 8.52734 12.1094 10.375 9.875 10.375C7.59766 10.375 5.75 8.52734 5.75 6.25C5.75 4.01562 7.59766 2.125 9.875 2.125ZM16.3633 11.1055C17.0938 11.5352 17.9531 11.75 18.8125 11.75C21.4336 11.75 23.625 9.60156 23.625 6.9375C23.625 4.31641 21.4336 2.125 18.8125 2.125C18.2539 2.125 17.6953 2.25391 17.1797 2.42578C16.8359 2.55469 16.6211 2.94141 16.75 3.28516C16.8789 3.67188 17.3086 3.84375 17.6523 3.71484C17.9961 3.58594 18.3828 3.5 18.8125 3.5C20.7031 3.5 22.25 5.04688 22.25 6.9375C22.25 8.87109 20.7031 10.375 18.8125 10.375C18.168 10.375 17.6094 10.2461 17.0938 9.94531C16.75 9.73047 16.3203 9.85938 16.1484 10.2031C15.9336 10.5039 16.0625 10.9336 16.3633 11.1055ZM21.3047 14.5H19.5C19.1133 14.5 18.8125 14.8438 18.8125 15.1875C18.8125 15.5742 19.1133 15.875 19.5 15.875H21.3047C24.0977 15.875 26.375 18.1523 26.375 20.9453C26.375 21.2031 26.1602 21.375 25.9023 21.375H21.5625C21.1758 21.375 20.875 21.7188 20.875 22.0625C20.875 22.4492 21.1758 22.75 21.5625 22.75H25.9023C26.8906 22.75 27.75 21.9336 27.75 20.9453C27.75 17.3789 24.8711 14.5 21.3047 14.5Z" fill="white"/>
</svg>
