<svg width="42" height="28" viewBox="0 0 42 28" fill="none" xmlns="http://www.w3.org/2000/svg">
<path d="M28.9688 7.15625L26.9688 20.125C26.9375 20.4375 26.75 20.7188 26.4688 20.875C26.3125 20.9375 26.1562 21 25.9688 21C25.8438 21 25.7188 20.9688 25.5938 20.9062L21.7812 19.3125L20.1875 21.6875C20.0625 21.9062 19.8438 22 19.625 22C19.2812 22 19 21.7188 19 21.375V18.375C19 18.125 19.0625 17.9062 19.1875 17.75L26 9L16.8125 17.2812L13.5938 15.9375C13.25 15.7812 13 15.4688 13 15.0625C12.9688 14.625 13.1562 14.3125 13.5 14.125L27.5 6.15625C27.8125 5.96875 28.25 5.96875 28.5625 6.1875C28.875 6.40625 29.0312 6.78125 28.9688 7.15625Z" fill="white" fill-opacity="0.5"/>
</svg>
