<svg width="28" height="28" viewBox="0 0 28 28" fill="none" xmlns="http://www.w3.org/2000/svg">
<rect width="28" height="28" rx="4" fill="white" fill-opacity="0.08"/>
<path d="M21.25 13.25C21.6562 13.25 22 13.5938 22 14C22 14.4375 21.6562 14.75 21.25 14.75H14.75V21.25C14.75 21.6875 14.4062 22 13.9688 22C13.5625 22 13.2188 21.6875 13.2188 21.25V14.75H6.71875C6.3125 14.75 5.96875 14.4375 5.96875 14C5.96875 13.5938 6.3125 13.25 6.71875 13.25H13.2188V6.75C13.2188 6.34375 13.5625 6 13.9688 6C14.4062 6 14.75 6.34375 14.75 6.75V13.25H21.25Z" fill="white" fill-opacity="0.5"/>
</svg>
