<svg
  width="26"
  height="17"
  viewBox="0 0 26 17"
  fill="none"
  xmlns="http://www.w3.org/2000/svg"
>
  <path
    d="M24.6016 2.04688C24.1719 1.83203 23.6133 1.83203 23.1836 2.13281L18.7578 5.22656C18.457 5.44141 18.3711 5.87109 18.5859 6.21484C18.8008 6.51562 19.2305 6.55859 19.5742 6.34375L24 3.25V14.25L19.5742 11.1562C19.2305 10.9414 18.8008 11.0273 18.5859 11.3281C18.3711 11.6719 18.457 12.1016 18.7578 12.3164L23.1836 15.4102C23.4414 15.582 23.6992 15.625 24 15.625C24.2148 15.625 24.4297 15.582 24.6016 15.4961C25.0742 15.2383 25.375 14.7656 25.375 14.25V3.25C25.375 2.73438 25.0742 2.30469 24.6016 2.04688ZM14.375 0.5H3.375C1.82812 0.5 0.625 1.74609 0.625 3.25V14.25C0.625 15.7969 1.82812 17 3.375 17H14.375C15.8789 17 17.125 15.7969 17.125 14.25V3.25C17.125 1.74609 15.8789 0.5 14.375 0.5ZM15.75 14.25C15.75 15.0234 15.1055 15.625 14.375 15.625H3.375C2.60156 15.625 2 15.0234 2 14.25V3.25C2 2.51953 2.60156 1.875 3.375 1.875H14.375C15.1055 1.875 15.75 2.51953 15.75 3.25V14.25Z"
    fill="white"
  />
</svg>
